<?xml version="1.0" standalone="no"?>
<!DOCTYPE svg PUBLIC "-//W3C//DTD SVG 20010904//EN"
 "http://www.w3.org/TR/2001/REC-SVG-20010904/DTD/svg10.dtd">
<svg version="1.0" xmlns="http://www.w3.org/2000/svg"
 width="491.000000pt" height="491.000000pt" viewBox="0 0 491.000000 491.000000"
 preserveAspectRatio="xMidYMid meet">
<metadata>
Created by potrace 1.14, written by Peter Selinger 2001-2017
</metadata>
<g transform="translate(0.000000,491.000000) scale(0.100000,-0.100000)"
fill="#000000" stroke="none">
<path d="M2705 4839 c4 -10 -2 -15 -15 -16 -13 -1 -18 2 -13 10 4 7 1 7 -10
-1 -9 -8 -22 -10 -28 -6 -9 5 -10 2 -6 -12 7 -18 7 -18 -8 0 -8 11 -15 15 -15
9 0 -6 -7 -14 -16 -17 -10 -4 -13 -2 -8 7 6 9 4 9 -8 -1 -8 -7 -24 -9 -33 -5
-14 5 -16 3 -10 -7 6 -10 3 -12 -13 -8 -13 4 -20 2 -16 -4 3 -5 0 -9 -7 -7
-27 3 -40 -1 -34 -11 3 -5 2 -10 -4 -10 -5 0 -12 6 -14 13 -4 9 -6 9 -6 -1 -1
-7 -5 -10 -11 -7 -5 3 -10 1 -10 -5 0 -6 -4 -8 -10 -5 -5 3 -10 1 -10 -5 0 -6
-4 -8 -10 -5 -5 3 -10 1 -10 -5 0 -6 -4 -9 -9 -5 -6 3 -14 -3 -20 -12 -8 -14
-11 -15 -11 -3 0 12 -3 11 -11 -3 -6 -9 -15 -14 -21 -11 -8 5 -9 1 -4 -12 4
-10 4 -15 0 -11 -4 4 -17 -1 -28 -10 -16 -14 -18 -14 -11 -3 6 10 4 9 -6 -2
-9 -9 -20 -14 -24 -10 -5 4 -5 -1 -2 -11 4 -11 3 -16 -3 -12 -6 3 -10 1 -10
-5 0 -6 -3 -9 -7 -7 -5 2 -16 -4 -25 -15 -10 -10 -15 -18 -10 -18 4 0 -1 -5
-10 -11 -10 -5 -18 -17 -18 -25 0 -8 -4 -12 -10 -9 -5 3 -10 -1 -10 -10 0 -9
-4 -13 -10 -10 -5 3 -7 0 -4 -8 3 -8 0 -18 -7 -23 -8 -5 -10 -3 -4 6 6 9 4 11
-4 6 -7 -5 -10 -10 -7 -14 3 -3 -4 -20 -15 -39 -11 -18 -17 -33 -12 -33 4 0 1
-5 -7 -10 -13 -9 -13 -10 0 -10 11 0 12 -2 3 -8 -7 -5 -13 -19 -13 -33 -1 -60
4 -99 12 -99 4 0 8 -7 8 -16 0 -15 23 -44 35 -44 12 0 34 -28 27 -34 -3 -4 2
-4 12 0 13 5 17 4 12 -4 -5 -8 -2 -10 8 -6 8 3 25 -3 37 -15 12 -11 26 -18 30
-15 5 3 18 0 29 -6 15 -8 20 -8 20 2 0 6 7 3 15 -8 10 -13 14 -14 15 -5 0 11
3 11 15 1 8 -7 26 -10 40 -8 13 3 22 1 19 -3 -3 -5 9 -7 25 -5 17 2 31 -1 31
-7 0 -5 7 -4 15 3 12 10 15 10 15 0 0 -9 3 -10 13 -1 10 8 17 7 26 -2 11 -9
14 -9 18 0 3 9 10 10 24 3 10 -6 19 -8 19 -4 0 3 7 1 16 -6 8 -8 14 -9 12 -4
-2 5 2 10 7 11 6 0 9 -3 7 -8 -1 -6 7 -5 18 1 16 9 20 8 20 -5 0 -8 4 -15 8
-15 17 0 12 -62 -5 -76 -17 -13 -17 -14 2 -8 19 5 19 5 3 -9 -10 -8 -18 -19
-18 -25 0 -7 -8 -9 -17 -5 -10 3 -15 2 -11 -2 12 -12 -27 -35 -51 -30 -12 2
-19 0 -16 -4 7 -13 -19 -21 -35 -11 -8 5 -22 4 -33 -2 -10 -5 -21 -7 -25 -4
-3 3 -16 -1 -30 -10 -17 -11 -22 -12 -16 -3 6 11 5 12 -7 2 -11 -9 -19 -9 -26
-2 -8 8 -13 7 -18 -2 -6 -8 -4 -10 5 -4 9 5 11 4 6 -3 -5 -9 -13 -9 -26 -2
-16 8 -18 8 -14 -4 4 -11 0 -14 -16 -11 -17 3 -20 1 -15 -13 5 -13 3 -14 -5
-6 -14 14 -52 6 -43 -9 4 -6 0 -8 -10 -4 -10 3 -17 2 -17 -4 0 -6 -4 -7 -10
-4 -5 3 -10 1 -10 -5 0 -6 -4 -8 -10 -5 -5 3 -10 2 -10 -4 0 -5 -9 -12 -19
-16 -14 -4 -18 -11 -14 -23 6 -15 5 -15 -10 -3 -15 12 -17 12 -11 -2 3 -10 -2
-20 -15 -27 -11 -6 -20 -14 -20 -18 4 -27 -3 -42 -21 -42 -11 0 -20 -5 -20
-11 0 -5 -4 -7 -10 -4 -5 3 -10 2 -10 -4 0 -5 -9 -8 -20 -6 -13 3 -18 0 -14
-7 5 -8 1 -9 -10 -5 -10 4 -15 3 -11 -3 3 -6 1 -10 -5 -10 -6 0 -8 -6 -4 -12
5 -10 4 -10 -6 -1 -10 9 -19 5 -44 -20 -17 -18 -24 -24 -16 -12 15 20 15 20
-7 2 -11 -10 -24 -30 -27 -43 -4 -15 -11 -22 -18 -18 -8 5 -9 2 -5 -9 3 -10 2
-17 -4 -17 -6 0 -8 -4 -4 -9 3 -6 -3 -14 -12 -20 -14 -8 -15 -10 -3 -11 13 0
13 -1 0 -10 -13 -9 -13 -10 0 -10 13 0 13 -1 0 -10 -10 -6 -11 -10 -2 -10 6 0
12 -5 12 -11 0 -5 -4 -7 -10 -4 -5 3 -10 -1 -10 -9 0 -9 5 -16 12 -16 9 0 9
-3 0 -12 -15 -15 -16 -31 -1 -22 8 5 10 -1 7 -19 -3 -16 0 -31 8 -38 8 -6 14
-20 14 -30 0 -11 5 -19 11 -19 6 0 8 -10 5 -22 -3 -13 -3 -17 0 -10 3 6 10 9
15 6 6 -3 5 -12 -2 -21 -11 -12 -10 -14 6 -11 11 1 20 -2 20 -8 0 -15 31 -44
39 -37 3 4 6 1 6 -6 0 -7 7 -19 15 -27 8 -9 15 -13 15 -10 0 3 9 -2 19 -11 19
-15 19 -17 3 -31 -14 -11 -14 -13 -2 -9 13 4 15 -2 12 -29 -3 -20 2 -41 9 -51
10 -12 10 -15 2 -9 -7 4 -13 2 -13 -3 0 -6 5 -11 11 -11 6 0 9 -9 6 -19 -3
-11 1 -22 9 -25 7 -3 16 -17 20 -31 3 -14 13 -25 23 -25 14 0 14 -2 1 -10 -13
-9 -13 -10 0 -11 8 -1 19 -1 23 0 5 1 6 -3 2 -8 -3 -6 6 -18 20 -27 14 -9 25
-21 25 -28 0 -6 10 -17 23 -25 20 -13 21 -13 8 2 -8 10 -9 17 -3 17 6 0 14 -9
17 -20 4 -11 11 -18 16 -15 5 4 9 1 9 -4 0 -6 9 -11 19 -11 11 0 23 -5 27 -12
5 -7 3 -8 -6 -3 -8 5 -11 4 -7 -2 4 -6 18 -9 31 -8 14 2 32 -5 42 -16 9 -10
28 -19 41 -19 12 0 23 -5 23 -11 0 -8 6 -7 17 2 11 10 14 10 9 2 -6 -12 18
-19 47 -14 4 0 7 -3 7 -7 0 -5 6 -9 13 -9 22 -1 42 -8 49 -18 5 -6 8 -5 8 3 0
10 3 10 15 -2 19 -19 19 -25 -2 -25 -62 -3 -79 -6 -85 -15 -6 -7 -11 -6 -18 4
-9 13 -10 13 -10 0 0 -13 -1 -13 -10 0 -7 11 -10 11 -10 2 0 -9 -14 -12 -49
-9 -28 1 -47 -1 -45 -5 7 -11 -3 -10 -26 2 -17 9 -18 8 -13 -7 6 -16 5 -16
-10 -4 -14 11 -17 11 -17 0 0 -11 -2 -11 -10 1 -9 13 -10 13 -10 0 0 -9 -3
-11 -8 -5 -9 13 -35 18 -27 5 3 -5 2 -10 -4 -10 -5 0 -13 5 -16 11 -5 7 -13 5
-25 -6 -17 -15 -19 -15 -29 2 -7 11 -11 13 -11 4 0 -7 -6 -11 -15 -7 -8 3 -15
2 -15 -2 0 -10 -83 -8 -99 3 -9 5 -12 4 -8 -2 10 -16 -25 -26 -35 -11 -5 8
-11 9 -15 3 -12 -16 -47 -19 -37 -3 6 9 3 9 -10 -1 -14 -12 -19 -12 -25 -2 -6
10 -10 9 -15 -4 -3 -9 -10 -13 -16 -10 -6 4 -8 12 -4 18 3 7 -1 5 -8 -5 -10
-12 -19 -13 -31 -7 -11 7 -17 6 -17 0 0 -6 -7 -7 -17 -4 -12 5 -14 3 -8 -8 6
-11 5 -12 -6 -1 -17 16 -43 16 -33 0 6 -10 5 -10 -7 -1 -12 10 -18 10 -29 0
-10 -9 -11 -9 -6 1 4 6 3 12 -3 12 -5 0 -12 -6 -14 -12 -4 -10 -8 -10 -15 1
-8 11 -10 11 -15 0 -4 -11 -6 -11 -6 -1 -1 7 -6 10 -11 7 -13 -8 -8 18 5 27 6
5 4 8 -5 8 -13 0 -13 1 0 10 13 9 13 11 0 20 -12 8 -12 10 -1 10 8 0 11 7 8
20 -3 11 0 20 6 20 9 0 9 2 0 8 -7 4 -8 13 -4 20 11 17 1 72 -13 72 -6 0 -5 4
3 9 12 8 12 12 2 24 -9 12 -9 16 1 20 10 4 10 6 -1 6 -11 1 -11 4 0 18 12 14
12 16 0 8 -11 -6 -13 -4 -8 8 3 9 0 23 -8 31 -11 11 -12 16 -2 19 9 4 9 6 0 6
-7 1 -13 6 -13 12 0 5 5 7 11 4 6 -4 5 2 -3 14 -7 12 -17 21 -22 21 -4 0 -4 6
2 13 7 8 6 16 -3 24 -7 6 -15 10 -18 7 -2 -3 -3 7 -1 21 2 19 -1 25 -11 21
-10 -3 -12 0 -8 11 4 11 2 14 -5 9 -8 -5 -10 -2 -6 8 3 9 1 16 -5 16 -6 0 -11
7 -11 15 0 7 -8 19 -17 24 -10 6 -14 11 -9 11 12 0 -34 40 -46 40 -5 0 -6 5
-3 10 3 6 -5 14 -19 20 -14 5 -26 12 -26 15 0 4 5 3 12 -1 7 -4 8 -3 4 4 -4 7
-14 12 -22 12 -8 0 -14 5 -14 11 0 5 -4 7 -10 4 -5 -3 -10 1 -10 10 0 9 -4 13
-10 10 -5 -3 -10 -1 -10 5 0 6 -5 8 -10 5 -6 -3 -10 -1 -10 6 0 7 -3 10 -6 6
-4 -3 -13 1 -21 9 -8 8 -19 12 -24 9 -5 -4 -9 -2 -9 3 0 5 -6 9 -12 10 -7 1
-24 3 -38 4 -14 2 -28 8 -32 13 -4 6 -8 1 -8 -10 0 -17 -2 -17 -10 -5 -7 12
-10 12 -10 1 0 -8 -6 -11 -17 -7 -10 4 -14 4 -10 0 3 -4 -5 -17 -19 -29 -15
-13 -23 -28 -20 -34 4 -6 2 -11 -4 -11 -7 0 -10 -7 -6 -15 3 -8 0 -20 -7 -27
-7 -7 -12 -23 -11 -35 1 -13 -3 -23 -7 -23 -5 0 -9 -5 -9 -11 0 -5 5 -7 11 -3
7 4 7 -1 -1 -16 -7 -12 -8 -20 -3 -17 5 3 10 -11 10 -31 1 -24 8 -42 22 -53
15 -12 17 -19 9 -22 -9 -4 -7 -6 3 -6 9 -1 23 -9 30 -18 13 -17 13 -17 -6 -3
-19 14 -19 14 -6 -2 7 -10 22 -18 33 -18 10 0 17 -4 14 -9 -3 -5 1 -11 9 -15
8 -3 12 -12 9 -21 -5 -11 -10 -13 -19 -5 -9 8 -14 7 -17 -2 -4 -10 -9 -10 -23
2 -10 8 -16 10 -12 4 6 -10 -16 -28 -33 -27 -3 0 -13 -8 -23 -18 -9 -11 -15
-19 -12 -19 3 0 -2 -11 -11 -25 -9 -14 -12 -25 -8 -25 5 0 2 -5 -6 -10 -8 -5
-10 -10 -5 -10 12 0 12 -46 0 -57 -4 -5 -5 -2 -1 5 9 15 1 15 -26 1 -12 -7
-18 -7 -14 -1 3 6 -1 9 -10 8 -8 -1 -20 -9 -25 -17 -5 -8 -9 -10 -9 -5 0 5 -7
3 -15 -4 -8 -6 -19 -9 -25 -5 -6 4 -9 3 -8 -2 5 -18 -14 -53 -25 -47 -7 4 -9
3 -4 -1 4 -5 -1 -17 -10 -28 -13 -15 -14 -18 -3 -12 13 7 13 6 -1 -11 -8 -10
-14 -29 -13 -41 0 -13 -2 -23 -6 -23 -4 0 -7 -7 -7 -15 0 -8 5 -15 11 -15 6 0
5 -4 -3 -9 -8 -5 -16 -17 -17 -25 -1 -9 2 -13 9 -9 6 4 8 0 4 -10 -3 -10 -2
-17 3 -17 5 0 6 -7 3 -17 -4 -10 -2 -14 4 -10 6 4 13 0 16 -7 3 -8 1 -17 -6
-20 -7 -2 -2 -5 11 -5 12 -1 22 -6 22 -12 0 -5 5 -7 12 -3 8 5 9 2 5 -10 -4
-9 -3 -14 2 -11 5 3 12 1 15 -4 4 -5 14 -8 24 -7 9 2 23 -4 30 -13 12 -14 13
-14 8 3 -5 15 -4 17 7 8 7 -6 23 -10 35 -7 12 2 25 -1 28 -7 5 -7 2 -8 -7 -4
-8 4 -6 1 3 -7 14 -11 15 -16 5 -27 -8 -8 -8 -11 -1 -7 7 4 15 0 18 -9 4 -10
2 -13 -7 -8 -9 5 -9 4 0 -6 6 -7 9 -19 6 -28 -5 -11 -3 -13 7 -7 10 6 12 3 7
-14 -4 -17 -2 -21 8 -17 9 3 12 0 8 -10 -3 -7 0 -14 6 -14 6 0 8 -8 4 -17 -3
-10 -3 -15 2 -11 8 7 45 -28 45 -42 0 -4 11 -6 26 -4 19 2 23 -1 15 -10 -8 -9
-7 -13 4 -13 8 0 15 4 15 9 0 5 6 3 14 -4 11 -12 30 -14 79 -9 5 1 5 7 1 13
-5 8 0 7 11 -2 14 -12 19 -12 23 -2 3 10 7 10 19 1 11 -10 14 -10 11 1 -2 10
6 14 25 14 20 -1 27 3 23 13 -3 8 -2 11 3 8 5 -3 12 -1 16 5 4 6 11 8 16 5 5
-4 9 -1 9 6 0 8 5 7 17 -2 11 -10 14 -10 9 -1 -10 16 16 16 33 0 8 -7 11 -8 8
-2 -9 16 100 9 121 -8 12 -10 14 -10 8 0 -5 9 7 12 49 12 42 0 55 -3 50 -12
-4 -7 1 -4 9 6 9 11 16 15 16 10 0 -13 43 -12 52 1 4 6 8 1 8 -10 0 -16 2 -17
9 -6 8 12 14 13 37 2 22 -10 25 -10 17 1 -9 10 -2 13 38 11 27 0 56 -4 64 -7
8 -3 17 -1 19 3 3 5 16 6 30 4 13 -3 27 0 31 7 5 8 11 6 22 -7 8 -10 12 -12 8
-5 -3 6 -3 12 2 13 4 0 18 2 31 5 13 2 21 0 18 -4 -3 -5 1 -9 8 -9 8 0 12 6
10 12 -3 6 2 12 10 12 8 0 13 -3 11 -7 -2 -4 2 -7 10 -7 8 0 11 5 8 10 -4 6 0
8 10 4 10 -4 17 -1 17 6 0 8 4 6 10 -3 9 -14 14 -7 11 13 -1 4 7 3 18 -2 10
-6 21 -8 24 -4 4 3 1 -6 -6 -20 -6 -14 -15 -23 -19 -21 -4 3 -5 -5 -3 -16 2
-11 0 -20 -5 -20 -4 0 -11 -7 -14 -16 -4 -10 -2 -13 7 -9 6 4 4 0 -5 -8 -14
-11 -15 -16 -5 -26 9 -10 8 -11 -8 -5 -18 7 -19 6 -5 -11 9 -11 10 -16 3 -11
-8 4 -13 1 -13 -8 0 -28 -1 -31 -18 -49 -15 -17 -15 -17 4 -12 19 7 19 6 0 -9
-15 -12 -16 -16 -5 -16 12 0 12 -2 -1 -10 -8 -5 -11 -10 -6 -10 5 0 2 -8 -5
-17 -10 -11 -10 -14 -1 -9 6 4 12 3 12 -3 0 -5 -4 -13 -10 -16 -5 -3 -10 -11
-10 -16 0 -6 6 -7 13 -3 8 5 8 2 -2 -9 -10 -13 -11 -20 -2 -31 8 -10 9 -16 1
-21 -5 -3 -10 -13 -10 -21 0 -8 4 -13 9 -10 11 7 9 -13 -2 -31 -5 -8 -3 -13 5
-13 10 0 10 -2 -1 -9 -9 -6 -10 -11 -2 -15 6 -4 11 -15 11 -24 0 -15 -2 -15
-10 -2 -7 11 -10 11 -10 2 0 -7 10 -17 23 -22 19 -7 19 -9 3 -9 -15 -1 -16 -4
-7 -15 6 -8 10 -20 9 -27 -2 -8 3 -13 11 -11 12 3 12 0 1 -12 -10 -13 -10 -16
1 -16 11 0 11 -2 -1 -10 -13 -9 -13 -10 0 -10 9 0 16 -10 17 -22 1 -13 7 -24
13 -26 5 -2 8 -8 4 -13 -3 -5 2 -16 10 -25 9 -8 16 -24 16 -35 0 -12 4 -17 11
-14 6 4 5 -2 -3 -14 -7 -12 -18 -21 -25 -21 -7 0 -13 -5 -13 -11 0 -5 -4 -7
-10 -4 -5 3 -10 -1 -10 -10 0 -9 -4 -13 -10 -10 -5 3 -10 1 -10 -5 0 -6 -4 -8
-10 -5 -9 6 -14 -8 -11 -28 1 -5 -3 -6 -9 -2 -14 8 -84 -61 -75 -75 3 -5 1
-10 -5 -10 -6 0 -8 -5 -4 -12 4 -7 3 -8 -4 -4 -7 4 -12 1 -12 -9 0 -9 -5 -13
-11 -10 -6 4 -10 1 -8 -6 1 -8 1 -23 0 -34 -1 -17 -3 -18 -11 -5 -12 19 -13 8
0 -24 6 -16 6 -27 -1 -31 -5 -4 -7 -11 -3 -16 3 -5 10 -6 16 -3 6 4 8 2 4 -4
-3 -5 0 -13 6 -15 10 -4 10 -6 0 -6 -10 -1 -10 -6 -1 -22 8 -15 8 -19 0 -15
-6 4 -11 2 -11 -5 0 -8 -5 -7 -17 2 -11 10 -14 10 -9 1 4 -7 1 -12 -9 -12 -9
0 -13 -5 -10 -10 3 -6 2 -10 -4 -10 -5 0 -11 6 -14 13 -3 9 -8 9 -18 -2 -12
-12 -12 -13 1 -6 9 5 12 4 7 -1 -9 -9 -13 -10 -43 -13 -8 0 -13 -5 -9 -10 3
-5 -5 -12 -17 -16 -37 -10 -68 -27 -63 -35 3 -4 -3 -14 -12 -21 -14 -12 -16
-12 -9 1 4 9 2 8 -7 -2 -8 -10 -17 -15 -21 -11 -4 4 -4 -1 0 -11 5 -13 4 -17
-4 -12 -6 3 -13 -3 -17 -14 -4 -11 -11 -18 -16 -15 -5 3 -6 -2 -2 -11 4 -12 3
-15 -5 -10 -8 5 -10 1 -5 -10 4 -12 3 -15 -5 -10 -8 5 -10 1 -5 -10 4 -10 0
-20 -11 -26 -14 -8 -15 -12 -4 -26 10 -12 10 -14 1 -8 -9 5 -13 -1 -14 -21 0
-15 -1 -43 -2 -61 -1 -17 1 -32 5 -32 4 0 5 -9 3 -20 -2 -11 0 -20 6 -20 5 0
9 -11 9 -25 0 -14 5 -25 10 -25 6 0 10 -7 10 -15 0 -8 6 -15 13 -15 9 0 9 -2
-1 -9 -10 -6 -9 -10 7 -14 12 -3 21 -12 21 -21 0 -14 12 -20 33 -17 7 1 11
-15 8 -33 -1 -5 6 -6 15 -2 10 4 21 0 28 -10 7 -9 24 -17 38 -17 14 -1 24 -5
21 -9 -2 -5 7 -8 21 -8 14 0 28 -5 31 -10 4 -7 13 -6 27 1 13 7 18 7 14 1 -4
-6 2 -11 11 -11 10 0 32 -2 48 -4 17 -2 42 0 58 4 16 5 25 4 22 -2 -4 -5 1 -9
10 -9 11 0 15 5 11 15 -4 11 -1 13 12 6 9 -5 29 -14 45 -22 15 -7 27 -18 27
-25 0 -8 6 -11 15 -7 9 3 22 -2 30 -13 9 -12 14 -14 15 -6 0 7 5 10 10 7 6 -4
7 -12 4 -18 -4 -7 -4 -9 1 -5 4 4 17 1 29 -7 27 -20 45 -19 20 1 -18 15 -18
15 2 5 12 -6 25 -7 29 -3 5 4 5 2 2 -4 -6 -10 9 -19 50 -29 7 -2 15 1 19 6 3
5 12 3 19 -5 9 -8 24 -12 36 -9 17 5 20 3 14 -8 -6 -11 -5 -12 6 -1 7 6 17 12
22 12 4 0 5 -6 0 -12 -4 -7 5 -5 19 4 26 17 28 17 37 0 6 -9 11 -11 11 -5 0
15 21 13 33 -2 4 -6 11 -4 17 5 7 10 13 11 18 4 4 -5 17 -10 29 -10 18 0 20 3
10 15 -9 12 -6 12 15 -2 16 -10 29 -13 33 -7 8 12 58 9 67 -5 5 -6 8 -3 8 8 0
20 4 21 31 7 14 -8 19 -7 19 2 0 9 3 9 12 0 9 -9 15 -7 25 6 8 9 12 11 8 5 -7
-15 11 -18 20 -3 4 6 11 8 16 4 6 -3 21 -7 35 -9 19 -2 24 1 19 13 -5 13 -2
13 14 -2 18 -17 20 -17 30 1 6 10 11 13 11 8 0 -16 40 -13 40 2 0 7 5 13 11
13 5 0 7 -5 4 -10 -4 -7 6 -10 25 -8 17 1 34 6 36 10 3 5 14 3 26 -3 16 -8 19
-8 13 1 -6 9 0 11 24 8 23 -3 31 -1 27 8 -3 8 0 11 9 7 8 -3 12 -10 8 -17 -3
-6 3 -2 15 8 17 14 22 16 22 5 0 -12 2 -12 9 0 5 7 14 10 20 7 6 -4 11 -3 11
2 0 6 10 8 22 4 16 -4 19 -2 13 9 -8 12 -6 12 8 0 14 -11 18 -11 23 4 5 13 9
14 15 3 7 -11 9 -11 9 1 0 11 3 11 15 1 13 -11 14 -10 9 3 -4 12 -1 15 15 12
11 -2 27 2 35 10 7 8 16 11 20 8 3 -4 6 -1 6 5 0 6 6 9 14 6 8 -3 21 5 30 18
11 15 16 17 16 8 1 -12 3 -11 11 3 5 9 14 17 19 17 13 0 56 43 53 52 -2 5 4 8
13 8 8 0 12 4 9 10 -3 5 1 10 9 10 9 0 15 6 13 13 -1 6 3 11 9 10 7 -1 10 6 7
17 -5 18 4 24 28 22 3 -1 6 5 6 13 0 8 -5 12 -11 9 -6 -3 -3 1 6 9 10 8 15 17
11 20 -3 4 -1 7 5 7 6 0 9 6 6 14 -3 8 0 17 6 21 9 6 9 10 -1 16 -11 7 -10 9
4 9 14 0 16 4 8 18 -6 10 -6 24 -1 32 5 8 6 18 3 23 -3 6 -6 23 -5 39 0 15 -3
26 -7 24 -4 -3 -8 5 -8 17 -1 12 -7 23 -13 25 -5 2 -10 9 -10 15 0 7 -9 18
-20 25 -12 7 -18 17 -15 22 3 6 -1 10 -9 10 -8 0 -24 10 -35 21 -11 13 -26 19
-35 16 -9 -4 -15 -1 -13 6 1 7 -6 11 -15 11 -10 -1 -18 2 -18 8 0 5 -4 7 -9 4
-5 -4 -11 -2 -13 3 -1 5 -14 11 -28 13 -14 1 -28 10 -32 18 -5 12 -7 11 -7 -4
-1 -20 -1 -20 -16 0 -9 12 -14 14 -15 6 0 -8 -5 -10 -12 -5 -7 4 -21 6 -30 5
-12 -2 -18 3 -18 15 0 12 7 18 24 18 13 0 21 -4 18 -10 -3 -6 0 -6 9 1 16 12
48 12 66 1 9 -6 11 -3 6 9 -4 12 -3 15 6 10 6 -4 18 -3 25 3 8 7 19 10 26 9 6
-2 17 6 23 17 7 11 19 27 27 35 9 8 14 24 12 34 -3 14 0 17 12 13 9 -4 15 -3
15 1 -3 19 2 33 10 27 5 -3 12 4 16 15 4 11 11 18 16 15 5 -3 6 2 2 11 -4 11
-3 15 5 10 6 -4 12 3 14 16 2 15 9 22 20 22 10 -1 15 3 12 8 -3 5 0 9 7 7 29
-3 40 1 33 13 -6 10 -4 10 8 0 13 -11 21 -8 47 14 18 15 35 24 38 20 3 -3 16
5 28 19 13 13 26 21 29 17 4 -3 4 1 0 11 -4 10 -1 17 6 17 10 0 10 3 1 14 -9
11 -9 16 0 22 8 5 9 3 4 -6 -6 -9 -4 -11 4 -6 9 6 8 12 -4 26 -9 10 -13 24 -9
35 5 13 4 16 -4 11 -7 -4 -12 -2 -12 4 0 6 -4 8 -10 5 -5 -3 -11 3 -11 14 -2
29 -3 34 -12 48 -4 6 -3 14 3 18 6 4 4 15 -6 31 -11 15 -12 24 -5 24 8 0 9 6
3 18 -5 9 -9 29 -8 45 1 15 -1 27 -4 27 -3 0 -6 9 -7 20 -1 13 2 18 10 13 7
-3 3 3 -7 15 -14 16 -15 22 -6 22 10 0 11 3 3 11 -6 6 -9 18 -6 27 5 11 3 13
-8 7 -12 -8 -12 -6 0 8 11 14 11 17 0 17 -12 0 -12 2 0 9 11 7 11 9 0 13 -12
4 -11 8 1 23 14 17 13 18 -2 12 -12 -4 -15 -2 -11 9 3 8 -1 22 -8 31 -12 14
-12 16 2 11 9 -4 16 -1 16 8 0 7 -5 10 -10 7 -6 -4 -8 0 -4 10 3 10 2 17 -4
17 -6 0 -5 8 2 21 8 16 8 20 0 14 -8 -4 -11 7 -8 38 2 30 -1 43 -8 41 -6 -3
-11 4 -11 15 0 11 4 17 8 15 4 -3 8 0 8 5 0 6 -5 11 -11 11 -8 0 -7 6 2 17 10
11 10 14 2 9 -13 -7 -16 6 -15 67 0 15 -4 27 -10 27 -5 0 -8 7 -5 15 4 8 2 17
-3 20 -6 4 -7 13 -1 24 6 10 6 23 1 31 -5 8 -6 18 -3 24 3 5 1 6 -6 2 -6 -4
-8 -12 -5 -18 5 -7 2 -8 -7 -3 -24 15 -47 13 -42 -4 2 -9 -2 -6 -9 7 -8 12
-17 20 -21 16 -3 -4 -13 -1 -22 6 -8 7 -15 9 -15 5 0 -4 -6 -2 -14 4 -11 10
-17 8 -25 -6 -6 -11 -11 -13 -11 -5 0 10 -4 9 -16 -3 -12 -12 -19 -13 -24 -5
-4 6 -11 12 -16 13 -5 1 -8 10 -8 19 2 20 -25 33 -32 15 -2 -7 -17 -13 -32
-12 -15 0 -33 -6 -40 -15 -8 -8 -11 -10 -8 -3 5 8 -2 7 -21 -2 -16 -7 -35 -15
-43 -17 -8 -2 -21 -10 -28 -18 -12 -13 -13 -13 -7 0 4 9 1 8 -8 -3 -20 -25
-67 -14 -62 14 2 11 0 17 -6 14 -5 -4 -9 3 -9 15 0 12 -4 18 -10 15 -6 -3 -10
5 -10 19 0 14 -4 28 -10 31 -5 3 -10 15 -10 26 0 11 -7 19 -16 19 -8 0 -13 4
-10 9 6 10 -18 63 -25 56 -3 -2 -6 5 -6 17 -1 12 -6 24 -11 27 -12 9 -24 43
-12 36 6 -3 10 2 10 12 1 17 1 17 11 1 5 -9 16 -15 24 -12 8 4 12 11 8 18 -4
6 -1 6 9 -2 13 -10 17 -10 22 4 5 13 9 14 20 5 10 -8 16 -9 21 -1 9 14 27 2
19 -13 -3 -7 1 -4 9 6 13 15 15 16 21 2 3 -8 10 -15 16 -15 6 0 9 4 6 9 -3 4
6 6 19 3 15 -2 22 -9 18 -16 -5 -8 -3 -8 8 -1 17 12 39 13 58 1 10 -6 12 -5 7
2 -4 7 -3 12 3 12 5 0 12 -6 14 -12 4 -10 6 -9 6 1 1 10 4 11 15 2 9 -8 16 -8
20 -2 4 6 13 8 21 4 9 -3 15 1 15 8 0 11 3 11 10 -1 8 -13 10 -12 10 3 0 17 1
17 16 3 19 -19 25 -20 22 -3 -2 7 8 12 25 11 18 0 27 5 28 15 0 11 2 12 6 4 3
-10 8 -9 20 2 8 8 19 13 23 10 5 -3 14 4 20 16 7 11 14 18 17 15 3 -3 12 2 20
12 8 9 11 11 7 3 -5 -9 -3 -12 4 -7 7 4 12 12 12 18 0 6 11 21 25 34 14 13 25
28 25 34 0 5 5 10 11 10 8 0 7 6 -2 18 -7 9 -10 14 -5 10 13 -11 36 15 25 28
-6 7 -4 16 6 24 18 15 20 34 3 25 -7 -4 -5 0 4 8 14 11 15 16 5 27 -8 8 -8 11
-1 7 7 -4 14 2 17 13 3 12 1 18 -5 14 -7 -4 -7 0 0 12 5 11 7 24 5 31 -2 6 5
18 16 25 12 8 18 18 14 21 -3 4 -1 7 6 7 7 0 9 5 6 10 -3 6 -1 10 5 10 10 0
35 48 32 63 -1 4 3 7 9 7 5 0 7 5 4 10 -3 6 -1 10 5 10 6 0 8 5 5 10 -3 6 -2
10 4 10 6 0 8 7 5 15 -4 8 -1 15 6 15 8 0 11 11 8 29 -3 18 0 28 6 24 5 -4 7
1 3 11 -4 10 -1 19 8 22 11 5 12 10 4 26 -9 16 -8 19 2 13 8 -6 11 -4 6 7 -3
9 0 21 6 27 7 7 7 11 1 11 -6 0 -11 7 -11 15 0 8 4 12 9 8 6 -3 7 10 4 32 -5
27 -3 34 6 29 9 -5 9 -3 -1 9 -9 12 -10 17 -2 17 7 0 9 5 5 12 -5 7 -7 25 -6
41 1 16 -1 26 -6 23 -5 -3 -9 1 -9 9 0 8 4 12 9 9 4 -3 8 0 8 5 0 6 -4 11 -10
11 -5 0 -7 7 -4 15 4 8 11 12 17 8 6 -3 7 -1 3 6 -4 6 -12 9 -17 5 -6 -3 -8
12 -6 40 2 24 0 43 -4 40 -4 -2 -10 0 -13 5 -4 5 -1 13 4 16 8 5 5 14 -7 28
-12 14 -13 18 -3 12 13 -8 13 -6 1 8 -7 9 -11 24 -7 32 3 9 -1 18 -9 21 -8 4
-15 10 -15 16 0 5 6 6 13 2 6 -4 5 1 -4 12 -9 10 -20 26 -24 34 -8 13 -7 13
11 0 18 -14 18 -14 1 6 -9 11 -14 24 -10 27 3 4 1 7 -6 7 -7 0 -10 4 -7 9 3 5
-1 14 -9 21 -9 7 -13 21 -10 31 4 11 2 19 -5 19 -6 0 -8 5 -5 10 3 6 2 10 -3
10 -6 0 -13 7 -16 16 -4 9 -2 13 6 8 6 -4 3 7 -8 25 -10 17 -23 31 -29 31 -5
0 -3 5 5 10 10 6 11 10 3 10 -7 0 -13 7 -13 15 0 8 -4 15 -10 15 -5 0 -10 9
-10 21 0 13 -4 18 -12 13 -7 -5 -8 -3 -4 5 5 7 1 20 -8 30 -8 9 -17 28 -19 41
-2 13 -9 26 -15 28 -7 2 -12 10 -12 18 0 8 -7 14 -15 14 -8 0 -15 8 -15 18 0
10 -9 24 -20 32 -13 9 -16 16 -8 21 6 4 2 9 -11 14 -11 3 -21 11 -21 16 0 6
-6 7 -12 3 -8 -5 -8 -1 2 12 8 10 11 16 6 12 -10 -8 -28 8 -45 40 -6 12 -19
22 -27 22 -8 0 -12 5 -9 10 3 6 2 10 -2 10 -5 0 -18 7 -29 15 -19 15 -19 15 1
9 11 -3 1 5 -23 18 -24 13 -40 27 -36 31 4 3 -5 11 -19 16 -15 6 -32 19 -38
30 -7 11 -19 17 -27 13 -10 -3 -13 -1 -8 6 4 7 2 12 -4 12 -6 0 -8 4 -5 10 3
5 0 7 -8 4 -8 -3 -24 5 -35 17 -14 14 -27 19 -39 15 -9 -4 -14 -4 -10 0 11 12
-23 43 -41 37 -11 -5 -13 -3 -7 7 6 9 4 11 -4 6 -7 -5 -19 0 -27 10 -9 11 -13
13 -9 7 4 -9 1 -11 -9 -7 -9 3 -13 11 -9 17 4 6 1 7 -6 3 -7 -5 -19 0 -27 10
-9 11 -13 13 -9 7 9 -18 -5 -16 -28 5 -13 10 -17 12 -12 3 6 -11 3 -11 -14 2
-13 8 -30 13 -39 10 -11 -5 -13 -3 -7 7 6 10 4 12 -9 7 -13 -5 -17 -3 -13 7 4
10 1 13 -8 9 -8 -3 -12 -9 -9 -14 9 -15 -20 -5 -33 11 -11 13 -12 13 -13 0 0
-12 -2 -13 -9 -1 -6 9 -10 10 -16 2 -5 -9 -11 -9 -22 0 -12 10 -16 10 -24 -2
-7 -12 -13 -7 -11 11 0 3 -8 6 -19 6 -10 0 -19 -3 -19 -7 0 -3 -21 -3 -47 1
-32 5 -50 4 -55 -4 -5 -7 -8 -7 -8 3 0 11 -3 11 -15 1 -12 -10 -15 -10 -15 1
0 8 -6 6 -16 -7 -8 -10 -13 -13 -9 -6 4 8 -2 12 -19 12 -14 0 -26 -6 -26 -12
0 -9 -3 -8 -10 2 -5 8 -12 11 -16 7 -4 -4 -13 -2 -21 5 -10 8 -12 8 -8 -3z"/>
</g>
</svg>
